<svg width="33" height="36" viewBox="0 0 33 36" fill="none" xmlns="http://www.w3.org/2000/svg">
<path d="M13.8205 30.7403C14.3927 30.7403 14.9448 30.7113 15.4762 30.6558C15.2933 31.2454 15.2154 31.8605 15.2415 32.471C14.7805 32.5078 14.3067 32.5269 13.8205 32.5269C5.79591 32.5269 1.17646 27.3659 1.17646 22.4942V21.1886C1.17646 19.253 2.74551 17.684 4.68105 17.684H22.668L22.5498 17.9628L22.5457 17.9724L22.5421 17.9823L22.4151 18.3298L22.4113 18.3402L22.4081 18.3509L22.3887 18.4143C22.3887 18.4143 22.3887 18.4144 22.3887 18.4144C22.2824 18.7603 22.2125 19.1144 22.1783 19.4706H4.68105C3.73227 19.4706 2.96312 20.2398 2.96312 21.1886V22.4942C2.96312 26.5403 6.95779 30.7403 13.8205 30.7403Z" fill="white" stroke="black" stroke-width="0.824607"/>
<path d="M21.7081 28.2578L21.6748 28.6687C21.7372 28.6738 21.8002 28.6827 21.8634 28.6957L22.0546 28.7478L23.9745 29.3881L23.9747 29.3882L24.293 29.4942L24.4989 29.5628L24.6721 29.4318C25.6157 28.7177 26.3997 27.8206 27.0246 26.7458C27.5601 25.8248 27.9148 24.8836 28.0823 23.9234L28.0825 23.9235L28.0844 23.9102L28.1486 23.4553L28.1783 23.2449L28.0242 23.0986L26.1516 21.3213L26.1516 21.3213C25.6552 20.8503 25.4667 20.108 25.6701 19.4333L25.7434 19.2325L26.5892 17.2382L26.5892 17.2381C26.9141 16.4718 27.6759 16.0757 28.4052 16.2227L28.5841 16.2698L29.638 16.6066L29.638 16.6066C30.5461 16.8967 31.2557 17.6804 31.4863 18.6826C32.0738 21.2384 31.3808 24.4141 29.2936 28.2468C27.2069 32.078 24.9673 34.2879 22.6102 35.0232C21.7763 35.2833 20.8781 35.0975 20.196 34.5286L20.0016 34.3501L19.1997 33.545C18.634 32.9771 18.5104 32.0686 18.8907 31.3546L18.9987 31.1768L20.2108 29.3959C20.4992 28.9722 20.9336 28.7211 21.3891 28.6727L21.3895 28.6727C21.4839 28.6626 21.5797 28.6612 21.6754 28.6688L21.7081 28.2578ZM21.7081 28.2578C21.5866 28.2481 21.4652 28.2499 21.3456 28.2627L21.9598 28.2946C21.876 28.2768 21.7919 28.2646 21.7081 28.2578Z" fill="white" stroke="black" stroke-width="0.824607"/>
<path d="M13.8204 0.710735C17.5586 0.710735 20.589 3.74118 20.589 7.4794C20.589 11.2176 17.5586 14.2481 13.8204 14.2481C10.0822 14.2481 7.05171 11.2176 7.05171 7.4794C7.05171 3.74118 10.0822 0.710735 13.8204 0.710735ZM13.8204 2.49739C11.0689 2.49739 8.83836 4.72791 8.83836 7.4794C8.83836 10.2309 11.0689 12.4614 13.8204 12.4614C16.5719 12.4614 18.8024 10.2309 18.8024 7.4794C18.8024 4.72791 16.5719 2.49739 13.8204 2.49739Z" fill="white" stroke="black" stroke-width="0.824607"/>
</svg>
