<svg width="28" height="31" viewBox="0 0 28 31" fill="none" xmlns="http://www.w3.org/2000/svg">
<path d="M26.2423 14.2275H24.3181V9.90561C24.3181 8.60845 23.626 6.79537 22.7819 5.87851L18.9062 1.66862C18.0621 0.751765 16.393 0 15.1988 0H2.17125C0.977065 0 0 1.06132 0 2.35848V27.8301C0 29.1272 0.977065 30.1885 2.17125 30.1885H22.1468C23.341 30.1885 24.3181 29.1272 24.3181 27.8301V25.4568H26.2423C27.0945 25.4568 27.7921 24.6992 27.7921 23.7735V15.9109C27.7921 14.9852 27.0945 14.2275 26.2423 14.2275ZM17.3728 2.72994C17.4922 2.82133 17.5953 2.91272 17.6794 3.00411L21.5551 7.214C21.6393 7.30539 21.7234 7.41742 21.8075 7.54713H17.3728V2.72994ZM22.581 27.8301C22.581 28.0865 22.3829 28.3018 22.1468 28.3018H2.17125C1.93513 28.3018 1.737 28.0865 1.737 27.8301V2.35848C1.737 2.10199 1.93513 1.88678 2.17125 1.88678H15.1988C15.3291 1.88678 15.4756 1.90447 15.633 1.9369V9.43392H22.5349C22.5648 9.60491 22.581 9.7641 22.581 9.90561V14.2275H6.24779C5.39557 14.2275 4.69805 14.9852 4.69805 15.9109V23.7764C4.69805 24.7021 5.39557 25.4598 6.24779 25.4598H22.581V27.8301ZM18.8275 19.3838C18.8275 20.3183 18.5832 21.0347 18.092 21.5329C17.6007 22.0311 16.8951 22.2788 15.9696 22.2788H14.4877V16.5978H16.1297C16.9846 16.5978 17.6469 16.8425 18.1191 17.3319C18.5914 17.8213 18.8275 18.5052 18.8275 19.3838ZM12.8023 18.3696C12.8023 18.9799 12.6258 19.4486 12.2757 19.7729C11.9229 20.0972 11.4235 20.2593 10.7749 20.2593H10.2999V22.2817H9.18984V16.5978H10.8617C11.4968 16.5978 11.9799 16.7452 12.3083 17.043C12.6367 17.3378 12.8023 17.78 12.8023 18.3696ZM23.6043 17.5825H21.6963V19.0477H23.4713V20.0323H21.6963V22.2788H20.6052V16.5978H23.6043V17.5825Z" fill="#FF3838"/>
</svg>
