<svg width="32" height="27" viewBox="0 0 32 27" fill="none" xmlns="http://www.w3.org/2000/svg">
<path d="M21.3375 13.1967C21.3375 16.2097 18.9028 18.6444 15.8898 18.6444C12.8768 18.6444 10.4421 16.2097 10.4421 13.1967C10.4421 10.1837 12.8768 7.74902 15.8898 7.74902C18.9028 7.74902 21.3375 10.1837 21.3375 13.1967Z" stroke="white" stroke-width="0.634947" stroke-linecap="round" stroke-linejoin="round"/>
<path d="M15.89 25.7812C21.2616 25.7812 26.2681 22.6161 29.7528 17.1379C31.1223 14.9923 31.1223 11.3858 29.7528 9.24019C26.2681 3.76202 21.2616 0.596863 15.89 0.596863C10.5183 0.596863 5.51187 3.76202 2.02716 9.24019C0.657615 11.3858 0.657615 14.9923 2.02716 17.1379C5.51187 22.6161 10.5183 25.7812 15.89 25.7812Z" stroke="white" stroke-width="0.634947" stroke-linecap="round" stroke-linejoin="round"/>
</svg>
