<svg width="29" height="33" viewBox="0 0 29 33" fill="none" xmlns="http://www.w3.org/2000/svg">
<path d="M24.6156 17.354C26.85 17.354 28.5975 18.9765 28.5975 20.9031V22.2019C28.5975 27.0594 23.4665 32.2447 14.5141 32.2447C5.56172 32.2447 0.430699 27.0594 0.430699 22.2019V20.9031C0.430699 18.9765 2.17817 17.354 4.41268 17.354H24.6156ZM4.41268 19.2572C3.45925 19.2572 2.62242 19.9607 2.62242 20.9031V22.2019C2.62242 26.2117 7.00764 30.3416 14.5141 30.3416C22.0206 30.3416 26.4058 26.2117 26.4058 22.2019V20.9031C26.4058 19.9607 25.569 19.2572 24.6156 19.2572H4.41268ZM14.5141 0.470219C18.7411 0.470219 22.1038 3.54639 22.1038 7.26617C22.1038 10.986 18.7411 14.0621 14.5141 14.0621C10.2872 14.0621 6.92448 10.986 6.92448 7.26617C6.92448 3.54638 10.2872 0.470219 14.5141 0.470219ZM14.5141 2.37332C11.5682 2.37332 9.1162 4.53042 9.1162 7.26617C9.1162 10.0019 11.5682 12.159 14.5141 12.159C17.46 12.159 19.912 10.0019 19.912 7.26617C19.912 4.53042 17.46 2.37332 14.5141 2.37332Z" fill="white" stroke="black" stroke-width="0.694406"/>
</svg>
