<svg width="31" height="31" viewBox="0 0 31 31" fill="none" xmlns="http://www.w3.org/2000/svg">
<path d="M25.8986 0H4.57034C2.04621 0 0 2.04621 0 4.57034V25.8986C0 28.4227 2.04621 30.4689 4.57034 30.4689H25.8986C28.4227 30.4689 30.4689 28.4227 30.4689 25.8986V4.57034C30.4689 2.04621 28.4227 0 25.8986 0Z" fill="#37AEE2"/>
<path d="M11.8423 24.0418C11.1877 24.0418 11.2472 23.8038 11.0687 23.2087L9.1644 16.9602L23.7442 8.39081" fill="#C8DAEA"/>
<path d="M11.8424 24.0418C12.2589 24.0418 12.497 23.8038 12.7945 23.5658L15.4725 21.0068L12.1399 18.9835" fill="#A9C9DD"/>
<path d="M12.1402 18.9837L20.174 24.8752C21.0072 25.4108 21.7213 25.1132 21.9593 24.042L25.2323 8.68857C25.5299 7.37935 24.6968 6.78426 23.8041 7.20083L4.70153 14.58C3.45183 15.0561 3.45183 15.8297 4.46349 16.1273L9.40279 17.6745L20.7096 10.4739C21.2452 10.1763 21.7213 10.2953 21.3642 10.7119" fill="#F6FBFE"/>
</svg>
