<svg width="31" height="31" viewBox="0 0 31 31" fill="none" xmlns="http://www.w3.org/2000/svg">
<path d="M26.298 0H4.96972C2.44559 0 0.399384 2.04621 0.399384 4.57034V25.8986C0.399384 28.4227 2.44559 30.4689 4.96972 30.4689H26.298C28.8221 30.4689 30.8683 28.4227 30.8683 25.8986V4.57034C30.8683 2.04621 28.8221 0 26.298 0Z" fill="#5281B8"/>
<path d="M16.705 21.6017C17.0026 21.5422 17.5381 21.4232 17.5381 20.7091C17.5381 20.7091 17.4786 18.9238 18.3118 18.6857C19.1449 18.4477 20.2161 20.4115 21.3468 21.1851C22.1799 21.7207 22.8345 21.6612 22.8345 21.6612L25.8695 21.6017C25.8695 21.6017 27.4167 21.4827 26.7026 20.233C26.6431 20.114 26.167 19.3404 24.3817 17.7336C22.5369 15.9483 22.8345 16.2459 25.0363 13.2109C26.4051 11.3661 27.0002 10.2354 26.8216 9.81882C26.5836 9.40225 25.6314 9.46176 25.6314 9.46176H22.2394C21.8823 9.46176 21.7038 9.52127 21.5253 9.81882C21.5253 9.81882 20.9897 11.3066 20.2756 12.4968C18.7878 15.0557 18.1927 15.1747 17.8952 14.9962C17.3596 14.6986 17.4786 13.5679 17.4786 12.7943C17.4786 10.1164 17.8952 9.16422 16.705 8.92618C15.9314 8.80716 13.1939 8.68814 12.3608 9.10471C11.9442 9.34274 11.7062 9.75931 11.8847 9.81882C12.0633 9.81882 12.5988 9.87833 12.8964 10.2354C13.3725 11.009 13.432 14.6986 12.7774 15.0557C11.8847 15.7103 9.62337 11.3661 9.08778 9.93784C8.96876 9.58078 8.79024 9.52127 8.37367 9.40225H5.10064C4.74358 9.40225 4.208 9.46176 4.44604 10.1759C6.05279 13.5084 9.38533 21.6612 15.3958 21.6017H16.705Z" fill="white"/>
</svg>
